<svg width="40" height="40" viewBox="0 0 40 40" fill="none" xmlns="http://www.w3.org/2000/svg">
<path fill-rule="evenodd" clip-rule="evenodd" d="M19.9999 13C19.8672 13 19.7401 13.0526 19.6463 13.1464C19.5525 13.2402 19.4999 13.3674 19.4999 13.5L19.4999 25.293L16.3539 22.146C16.26 22.0521 16.1326 21.9993 15.9999 21.9993C15.8671 21.9993 15.7397 22.0521 15.6459 22.146C15.552 22.2398 15.4992 22.3672 15.4992 22.5C15.4992 22.6327 15.552 22.7601 15.6459 22.854L19.6459 26.854C19.6923 26.9005 19.7475 26.9375 19.8082 26.9627C19.869 26.9879 19.9341 27.0009 19.9999 27.0009C20.0656 27.0009 20.1307 26.9879 20.1915 26.9627C20.2522 26.9375 20.3074 26.9005 20.3539 26.854L24.3539 22.854C24.4003 22.8075 24.4372 22.7523 24.4624 22.6915C24.4875 22.6308 24.5005 22.5657 24.5005 22.5C24.5005 22.3672 24.4477 22.2398 24.3539 22.146C24.26 22.0521 24.1326 21.9993 23.9999 21.9993C23.8671 21.9993 23.7397 22.0521 23.6459 22.146L20.4999 25.293L20.4999 13.5C20.4999 13.3674 20.4472 13.2402 20.3534 13.1464C20.2596 13.0526 20.1325 13 19.9999 13Z" fill="black"/>
<circle cx="20" cy="20" r="19.5" stroke="#665F5F"/>
</svg>
