<svg width="72" height="72" viewBox="0 0 72 72" fill="none" xmlns="http://www.w3.org/2000/svg">
<mask id="mask0" mask-type="alpha" maskUnits="userSpaceOnUse" x="12" y="5" width="49" height="62">
<path fill-rule="evenodd" clip-rule="evenodd" d="M12 5H60.6483V66.7789H12V5Z" fill="white"/>
</mask>
<g mask="url(#mask0)">
<path fill-rule="evenodd" clip-rule="evenodd" d="M36.0374 15.2813C28.3411 15.2949 22.0696 21.5664 22.056 29.2627C22.0696 36.9562 28.3411 43.2277 36.0374 43.2413C43.7322 43.2277 50.0039 36.9562 50.0174 29.2613C50.0039 21.5664 43.7322 15.2949 36.036 15.2813H36.0374ZM36.0374 45.9244C26.8515 45.9244 19.3773 38.4502 19.376 29.2644C19.3773 20.077 26.8515 12.6016 36.0374 12.6016C45.222 12.6016 52.6975 20.0757 52.7002 29.2644C52.6975 38.4502 45.222 45.9244 36.0374 45.9244ZM36.0372 47.7467C36.2485 47.7467 36.4597 47.7981 36.648 47.8956L41.7264 50.4972L44.8262 45.7044C45.0592 45.3428 45.4546 45.114 45.884 45.0924L51.5841 44.8053L51.8685 39.1079C51.8901 38.6772 52.1189 38.2817 52.4792 38.0488L57.2746 34.9489L54.6704 29.8705C54.474 29.4858 54.474 29.0295 54.6717 28.6476L57.2719 23.5677L52.4792 20.4692C52.1176 20.2362 51.8901 19.8409 51.8698 19.4102L51.5841 13.7115L45.884 13.4244C45.4533 13.4027 45.0578 13.1738 44.8262 12.8122L41.7264 8.01953L36.6466 10.6238C36.4597 10.7199 36.2485 10.77 36.0372 10.77C35.8245 10.77 35.6133 10.7199 35.425 10.6238L30.3453 8.01953L27.2481 12.8122C27.0151 13.1738 26.6197 13.4027 26.1903 13.4244L20.4903 13.7101L20.2059 19.4116C20.1815 19.8409 19.954 20.2362 19.5924 20.4692L14.7997 23.5677L17.4026 28.6476C17.599 29.0295 17.599 29.4858 17.4026 29.8705L14.7983 34.9476L19.5924 38.0488C19.954 38.2831 20.1815 38.6772 20.2059 39.1065L20.4903 44.8053L26.1903 45.0924C26.6197 45.1154 27.0151 45.3428 27.2481 45.7044L30.3453 50.4972L35.4264 47.8943C35.612 47.7981 35.8232 47.7467 36.0372 47.7467ZM22.5859 57.3729C22.9503 57.4135 23.2752 57.6017 23.4987 57.8997L27.2757 62.9429L33.722 51.7785L30.4921 53.4347C30.3039 53.5321 30.0926 53.5836 29.8813 53.5836C29.4236 53.5836 29.0024 53.3535 28.7546 52.9688L25.3729 47.7359L21.5689 47.5464L16.3252 56.6253L22.5859 57.3729ZM44.7993 62.9476L48.5737 57.9016C48.7971 57.6036 49.1221 57.4154 49.4891 57.3748L55.7471 56.6272L50.5089 47.5469L46.702 47.7378L43.3192 52.972C43.0713 53.3554 42.6502 53.5842 42.1937 53.5842C41.9825 53.5842 41.7712 53.534 41.5844 53.4366L38.353 51.7817L44.7993 62.9476ZM27.4162 66.716C26.9964 66.716 26.5955 66.5156 26.3436 66.1783L21.6945 59.965L13.9901 59.0455C13.5432 58.9913 13.1545 58.7191 12.95 58.3169C12.7482 57.912 12.7618 57.4366 12.9879 57.0453L18.6298 47.2729C18.1951 47.0643 17.8971 46.6392 17.8714 46.1543L17.5626 39.9274L12.3271 36.5431C11.7461 36.1666 11.5457 35.4205 11.8612 34.8056L14.7038 29.2613L11.8598 23.7143C11.5457 23.0995 11.7461 22.3547 12.3271 21.9795L17.5626 18.5925L17.8714 12.3683C17.9093 11.6776 18.4564 11.1319 19.1457 11.098L25.3712 10.7825L28.7542 5.55234C29.0021 5.16772 29.4219 4.9375 29.8796 4.9375C30.0909 4.9375 30.3022 4.98761 30.4904 5.08511L36.0374 7.92635L41.5845 5.08511C41.7713 4.98761 41.9813 4.9375 42.1911 4.9375C42.6489 4.9375 43.0714 5.16772 43.3193 5.55234L46.7021 10.7825L52.9305 11.098C53.617 11.1319 54.1642 11.6776 54.2021 12.367L54.5122 18.5925L59.7464 21.9795C60.3273 22.3547 60.5264 23.0995 60.2123 23.7143L57.3697 29.2613L60.2123 34.8056C60.5264 35.4205 60.3273 36.1653 59.7477 36.5431L54.5122 39.9274L54.2021 46.153C54.1749 46.6405 53.877 47.0643 53.4437 47.2743L59.0869 57.0453C59.3117 57.4366 59.3239 57.912 59.1235 58.3156C58.9216 58.7191 58.533 58.9913 58.0847 59.0455L50.3762 59.965L45.7312 66.1783C45.4726 66.5196 45.0825 66.716 44.6586 66.716C44.1277 66.6889 43.7242 66.4398 43.4953 66.0457L36.036 53.1247L28.5781 66.0457C28.352 66.4384 27.947 66.6889 27.496 66.7147L27.4162 66.716Z" fill="white"/>
</g>
</svg>
