<svg width="72" height="72" viewBox="0 0 72 72" fill="none" xmlns="http://www.w3.org/2000/svg">
<mask id="mask0" mask-type="alpha" maskUnits="userSpaceOnUse" x="55" y="51" width="12" height="15">
<path fill-rule="evenodd" clip-rule="evenodd" d="M55.0508 51.188H66.8872V65.8714H55.0508V51.188Z" fill="white"/>
</mask>
<g mask="url(#mask0)">
<path fill-rule="evenodd" clip-rule="evenodd" d="M64.7515 64.9226C64.3099 64.9226 63.8683 64.7486 63.5319 64.4026L56.1377 55.4206C55.4632 54.7268 55.4632 53.6035 56.1377 52.9115C56.8106 52.2177 57.9027 52.2177 58.5772 52.9115L65.9713 61.8933C66.6458 62.5873 66.6458 63.7088 65.9713 64.4026C65.6349 64.7486 65.1933 64.9226 64.7515 64.9226Z" fill="white"/>
</g>
<mask id="mask1" mask-type="alpha" maskUnits="userSpaceOnUse" x="5" y="6" width="61" height="60">
<path fill-rule="evenodd" clip-rule="evenodd" d="M5 6H65.4575V65.0118H5V6Z" fill="white"/>
</mask>
<g mask="url(#mask1)">
<path fill-rule="evenodd" clip-rule="evenodd" d="M36.9029 9.38611C20.4262 9.38611 8.46823 21.0585 8.46823 37.1402C8.46823 50.6403 21.2245 61.6235 36.9029 61.6235C50.0288 61.6235 61.985 49.9544 61.985 37.1402C61.985 21.8378 50.7333 9.38611 36.9029 9.38611ZM36.9047 65.0122C19.3123 65.0122 4.99948 52.5098 4.99948 37.1412C4.99948 19.0964 18.4185 5.99939 36.9047 5.99939C52.6491 5.99939 65.4574 19.9704 65.4574 37.1412C65.4574 51.7289 51.8475 65.0122 36.9047 65.0122Z" fill="white"/>
</g>
<path fill-rule="evenodd" clip-rule="evenodd" d="M35.518 23.3014C32.2403 23.3014 29.5743 25.8595 29.5743 29.0049C29.5743 32.1501 32.2403 34.7066 35.518 34.7066C38.7941 34.7066 41.46 32.1501 41.46 29.0049C41.46 25.8595 38.7941 23.3014 35.518 23.3014ZM35.518 38.0127C30.3412 38.0127 26.1277 33.9711 26.1277 29.0036C26.1277 24.0343 30.3412 19.9928 35.518 19.9928C40.6949 19.9928 44.9067 24.0343 44.9067 29.0036C44.9067 33.9711 40.6949 38.0127 35.518 38.0127ZM13.4768 44.4487C12.5255 44.4487 11.7535 43.7079 11.7535 42.795C11.7535 38.3335 15.5362 34.7037 20.1857 34.7037C23.422 34.7037 26.3224 36.4368 27.7527 39.2248C28.1732 40.0434 27.8217 41.0355 26.9669 41.4391C26.1139 41.8442 25.0799 41.5052 24.6611 40.685C23.815 39.0363 22.0985 38.0111 20.1857 38.0111C17.437 38.0111 15.2001 40.1574 15.2001 42.795C15.2001 43.7079 14.4281 44.4487 13.4768 44.4487Z" fill="white"/>
<path fill-rule="evenodd" clip-rule="evenodd" d="M48.9496 51.6438C47.9986 51.6438 47.2267 50.8533 47.2267 49.8795C47.2267 43.279 41.9842 37.9083 35.5373 37.9083C29.0921 37.9083 23.8478 43.279 23.8478 49.8795C23.8478 50.8533 23.076 51.6438 22.125 51.6438C21.174 51.6438 20.4022 50.8533 20.4022 49.8795C20.4022 41.3329 27.1918 34.3796 35.5373 34.3796C43.8828 34.3796 50.6724 41.3329 50.6724 49.8795C50.6724 50.8533 49.9006 51.6438 48.9496 51.6438Z" fill="white"/>
<path fill-rule="evenodd" clip-rule="evenodd" d="M50.6739 29.0312C49.4667 29.0312 48.4849 30.0111 48.4849 31.2157C48.4849 32.4205 49.4667 33.402 50.6739 33.402C51.881 33.402 52.8629 32.4205 52.8629 31.2157C52.8629 30.0111 51.881 29.0312 50.6739 29.0312ZM50.6724 36.9704C47.4927 36.9704 44.9067 34.3879 44.9067 31.2147C44.9067 28.0416 47.4927 25.4609 50.6724 25.4609C53.8522 25.4609 56.4383 28.0416 56.4383 31.2147C56.4383 34.3879 53.8522 36.9704 50.6724 36.9704Z" fill="white"/>
<path fill-rule="evenodd" clip-rule="evenodd" d="M20.1963 30.5273C19.0322 30.5273 18.0854 31.4439 18.0854 32.5708C18.0854 33.6977 19.0322 34.6159 20.1963 34.6159C21.3604 34.6159 22.3089 33.6977 22.3089 32.5708C22.3089 31.4439 21.3604 30.5273 20.1963 30.5273ZM20.1962 37.9537C17.1299 37.9537 14.6362 35.538 14.6362 32.5697C14.6362 29.6015 17.1299 27.1875 20.1962 27.1875C23.2623 27.1875 25.7578 29.6015 25.7578 32.5697C25.7578 35.538 23.2623 37.9537 20.1962 37.9537ZM57.5964 44.4517C56.6444 44.4517 55.8718 43.7037 55.8718 42.7822C55.8718 40.1194 53.6334 37.9525 50.8827 37.9525C48.9685 37.9525 47.2508 38.9876 46.4041 40.652C45.985 41.48 44.9503 41.8223 44.0967 41.4132C43.2412 41.0059 42.8894 40.0042 43.3103 39.1778C44.7416 36.3632 47.644 34.6136 50.8827 34.6136C55.5356 34.6136 59.3209 38.278 59.3209 42.7822C59.3209 43.7037 58.5483 44.4517 57.5964 44.4517Z" fill="white"/>
</svg>
