<svg width="18" height="18" viewBox="0 0 18 18" fill="none" xmlns="http://www.w3.org/2000/svg">
<path opacity="0.3" d="M16.3636 0H1.63636C0.732273 0 0 0.732273 0 1.63636V16.3636C0 17.2677 0.732273 18 1.63636 18H9.81818V10.6364H7.36364V8.18182H9.81818V6.86373C9.81818 4.36827 11.034 3.27273 13.1081 3.27273C14.1014 3.27273 14.6266 3.34636 14.8754 3.37991V5.72727H13.4607C12.5804 5.72727 12.2727 6.192 12.2727 7.13291V8.18182H14.8533L14.5031 10.6364H12.2727V18H16.3636C17.2677 18 18 17.2677 18 16.3636V1.63636C18 0.732273 17.2669 0 16.3636 0Z" fill="white"/>
</svg>
