<svg width="200" height="200" viewBox="0 0 200 200" fill="none" xmlns="http://www.w3.org/2000/svg">
<path fill-rule="evenodd" clip-rule="evenodd" d="M128.067 136.576C124.017 140.674 119.986 144.791 115.918 148.859C111.032 153.745 106.018 158.631 101.168 163.572C100.014 164.751 99.4584 164.72 98.3101 163.572C82.5199 147.835 66.699 132.126 50.8477 116.445C48.3008 113.923 45.815 111.333 43.1887 108.903C42.071 107.864 42.2543 107.351 43.2987 106.46C54.726 96.4796 67.8147 89.7551 82.6929 86.9945C110.049 81.9129 134.522 88.3076 155.899 106.252C157.23 107.37 157.292 107.944 155.997 109.159C146.53 118.082 136.507 126.169 124.158 130.835C112.376 135.294 100.576 135.11 88.8433 130.707C84.1167 129.039 80.0366 125.923 77.1838 121.802C72.7985 115.34 73.4215 107.345 78.8268 101.683C83.6396 96.6445 89.8205 94.3542 96.5389 93.4503C101.473 92.6911 106.517 93.1289 111.246 94.7267C114.051 95.634 116.543 97.315 118.435 99.5762C121.971 103.943 121.525 109.697 117.152 113.227C111.82 117.502 105.688 118.791 99.0186 117.301C96.856 116.841 94.9049 115.682 93.4668 114.002C92.0559 112.384 90.2114 112.17 88.8494 113.276C87.4874 114.381 87.3775 116.384 88.8494 118.113C91.5551 121.258 95.1525 122.804 99.1224 123.475C107.221 124.856 114.892 123.634 121.721 118.889C130.797 112.573 130.974 101.928 122.197 95.1726C116.499 90.769 109.841 89.4436 102.818 89.3154C93.2164 89.1444 84.232 91.3065 76.3898 97.0415C63.6921 106.337 63.5027 121.832 75.8951 131.55C82.1676 136.466 89.4602 138.824 97.2718 139.899C107.303 141.304 117.525 140.204 127.028 136.698C127.358 136.576 127.67 136.332 128.091 136.576" fill="#05539D"/>
<path fill-rule="evenodd" clip-rule="evenodd" d="M37.7732 103.283C36.8583 102.802 36.0808 102.096 35.5134 101.231C34.9392 100.468 35.8676 100.089 36.2829 99.6739C53.9706 82.1002 71.6583 64.559 89.346 47.0505C92.3571 44.07 95.4537 41.2055 98.3914 38.1272C99.613 36.808 100.224 37.2355 101.274 38.2738C113.107 50.1104 124.964 61.9185 136.845 73.6981C145.506 82.2895 154.179 90.8728 162.864 99.4479C163.517 100.095 164.739 100.669 163.395 101.842C162.43 102.697 161.886 103.754 160.25 102.453C147.341 92.2699 132.025 85.5869 115.78 83.0489C96.7941 79.8735 77.294 82.328 59.6874 90.1093C52.3229 93.3369 45.39 97.4712 39.0497 102.416C38.6466 102.722 38.219 102.99 37.7915 103.283" fill="#6BB8D4"/>
</svg>
