<svg width="18" height="18" viewBox="0 0 18 18" fill="none" xmlns="http://www.w3.org/2000/svg">
<path opacity="0.3" fill-rule="evenodd" clip-rule="evenodd" d="M2 0H16C17.105 0 18 0.895 18 2V16C18 17.105 17.105 18 16 18H2C0.895 18 0 17.105 0 16V2C0 0.895 0.895 0 2 0ZM3.476 12.738C3.476 13.435 4.041 14 4.738 14C5.435 14 6 13.435 6 12.739V8.262C6 7.565 5.435 7 4.738 7C4.042 7 3.477 7.565 3.476 8.261V12.738ZM4.69225 5.71689C3.92125 5.71689 3.40625 5.20289 3.40625 4.51689C3.40625 3.83089 3.92025 3.31689 4.77725 3.31689C5.54825 3.31689 6.06325 3.83089 6.06325 4.51689C6.06325 5.20289 5.54925 5.71689 4.69225 5.71689ZM12.558 12.779C12.558 13.453 13.105 14 13.779 14C14.453 14 15 13.453 15 12.779V10.174C15 7.977 14.023 7 12.804 7C10.888 7 10.606 8.262 10.606 8.262C10.606 7.565 10.041 7 9.344 7C8.647 7 8.082 7.565 8.082 8.262V12.779C8.082 13.453 8.629 14 9.303 14H9.384C10.058 14 10.605 13.453 10.605 12.779V10.174C10.605 9.035 11.419 9 11.663 9C11.907 9 12.558 9.116 12.558 10.174V12.779Z" fill="white"/>
</svg>
