<svg width="132" height="35" viewBox="0 0 132 35" fill="none" xmlns="http://www.w3.org/2000/svg">
<path d="M6.70145 34.3137V6.42603C7.99255 5.86453 10.0214 5.55258 11.9273 5.55258C13.157 5.55258 14.3251 5.67736 15.3088 5.92692L16.5999 0.249555C15.6162 0.0623892 14.3251 0 12.8495 0C7.93105 0 3.19702 0.998207 0 2.37076V34.3137H6.70145ZM35.0442 35C39.7168 35 44.5738 33.9394 46.9716 32.6292V11.4171C46.9716 3.11943 42.1761 0 34.245 0C29.8183 0 25.3302 1.18537 22.6865 2.37076L24.408 7.04991C26.6213 5.98931 30.4332 4.99109 33.5687 4.99109C37.8109 4.99109 40.5775 6.48841 40.5775 10.7308V12.8521L40.0849 12.8806L39.1015 12.9438C29.6123 13.5978 20.7191 15.5583 20.7191 24.4563C20.7191 31.0695 25.5147 35 35.0442 35ZM34.8598 30.0713C29.7569 30.0713 27.0517 27.8877 27.0517 24.3316C27.0517 18.7089 33.0119 17.8699 39.3369 17.4785L40.5775 17.4064V29.1979C39.5324 29.697 37.0116 30.0713 34.8598 30.0713ZM62.1574 34.3137V0.686276H55.3945V34.3137H62.1574ZM83.9218 35C93.3284 35 98.4928 27.451 98.4928 17.4688C98.4928 7.48663 93.3284 0 83.9218 0C74.5151 0 69.3507 7.48663 69.3507 17.4688C69.3507 27.451 74.5151 35 83.9218 35ZM83.9218 29.4474C78.6959 29.4474 76.1136 24.6435 76.1136 17.4064C76.1136 10.1693 78.6959 5.42781 83.9218 5.42781C89.1477 5.42781 91.7298 10.1693 91.7298 17.4064C91.7298 24.6435 89.1477 29.4474 83.9218 29.4474ZM112.203 34.3137V6.48842C113.556 5.92692 115.83 5.49019 118.29 5.49019C122.901 5.49019 125.237 7.92335 125.237 11.8538V34.3137H132V11.2299C132 4.11765 127.512 0 118.228 0C113.064 0 108.822 0.998207 105.502 2.37076V34.3137H112.203Z" fill="white"/>
</svg>
