<svg width="114" height="30" viewBox="0 0 114 30" fill="none" xmlns="http://www.w3.org/2000/svg">
<path d="M5.78761 29.2035V5.46903C6.90266 4.99115 8.65487 4.72566 10.3009 4.72566C11.3628 4.72566 12.3717 4.83186 13.2212 5.04425L14.3363 0.21239C13.4867 0.0530979 12.3717 0 11.0973 0C6.84955 0 2.76106 0.849549 0 2.01769V29.2035H5.78761ZM30.2655 29.7876C34.3009 29.7876 38.4956 28.8849 40.5664 27.7699V9.71681C40.5664 2.65487 36.4248 0 29.5752 0C25.7522 0 21.8761 1.00884 19.5929 2.01769L21.0796 6C22.9912 5.09735 26.2832 4.24778 28.9911 4.24778C32.6549 4.24778 35.0442 5.52212 35.0442 9.13274V10.9381L34.6188 10.9623L33.7694 11.0162C25.5743 11.5727 17.8938 13.2413 17.8938 20.8142C17.8938 26.4425 22.0354 29.7876 30.2655 29.7876ZM30.1062 25.5929C25.6991 25.5929 23.3628 23.7345 23.3628 20.708C23.3628 15.9227 28.5102 15.2086 33.9728 14.8755L35.0442 14.8142V24.8496C34.1416 25.2743 31.9646 25.5929 30.1062 25.5929ZM53.6814 29.2035V0.584072H47.8407V29.2035H53.6814ZM72.4779 29.7876C80.6018 29.7876 85.062 23.3628 85.062 14.8673C85.062 6.37168 80.6018 0 72.4779 0C64.354 0 59.8938 6.37168 59.8938 14.8673C59.8938 23.3628 64.354 29.7876 72.4779 29.7876ZM72.4779 25.0619C67.9646 25.0619 65.7345 20.9734 65.7345 14.8142C65.7345 8.65487 67.9646 4.61947 72.4779 4.61947C76.9911 4.61947 79.2212 8.65487 79.2212 14.8142C79.2212 20.9734 76.9911 25.0619 72.4779 25.0619ZM96.9026 29.2035V5.52212C98.0708 5.04425 100.035 4.67256 102.159 4.67256C106.142 4.67256 108.159 6.74336 108.159 10.0885V29.2035H114V9.55752C114 3.50442 110.124 0 102.106 0C97.646 0 93.9823 0.849549 91.115 2.01769V29.2035H96.9026Z" fill="url(#paint0_linear)"/>
<defs>
<linearGradient id="paint0_linear" x1="57" y1="13.8769" x2="55.836" y2="19.7367" gradientUnits="userSpaceOnUse">
<stop stop-color="#93291E"/>
<stop offset="1" stop-color="#ED213A"/>
</linearGradient>
</defs>
</svg>
