<svg width="122" height="118" viewBox="0 0 122 118" fill="none" xmlns="http://www.w3.org/2000/svg">
<path d="M98.7344 16.9504L102.953 39.5357C106.462 39.6024 109.284 42.3664 109.284 45.769C109.284 47.8024 108.282 49.5957 106.728 50.7397L117.088 71.2956C117.473 71.221 117.869 71.1823 118.277 71.1823C118.882 71.1823 119.454 71.2957 120.002 71.453C120.969 67.2616 121.46 62.9745 121.465 58.673C121.465 41.2997 113.645 25.6998 101.225 14.9531C100.589 15.8298 99.7284 16.5195 98.7344 16.9504ZM54.6372 14.1465C55.5345 11.7398 57.9172 10.0131 60.7118 10.0131C63.5145 10.0131 65.8918 11.7398 66.7918 14.1465L90.2451 10.8251C90.3865 9.78513 90.8158 8.84781 91.4358 8.05848C82.4265 2.94382 71.9372 -0.000175476 60.7358 -0.000175476C49.2599 -0.000175476 38.8306 2.93316 29.9666 7.94648C30.6485 8.7723 31.0879 9.7711 31.2359 10.8318L54.6372 14.1465ZM91.6424 89.5809L112.4 78.4943C112.274 78.0229 112.21 77.537 112.209 77.049C112.209 75.089 113.201 73.361 114.729 72.2916L104.416 51.821C103.893 51.9478 103.357 52.0136 102.818 52.017C102.574 52.017 102.33 51.9997 102.094 51.9757L89.9038 88.1929C90.5651 88.5529 91.1571 89.0196 91.6411 89.5796L91.6424 89.5809ZM4.33066 71.2903L14.7013 50.737C13.1453 49.593 12.1333 47.7944 12.1333 45.7597C12.1333 42.3464 14.96 39.5811 18.4786 39.5184L22.6879 16.9251C21.6776 16.4768 20.8083 15.7619 20.1733 14.8571C7.58665 25.7998 0 41.6784 0 58.6703C0 63.0623 0.517336 67.3343 1.46533 71.4543C2.02216 71.2816 2.60104 71.1905 3.18399 71.1836C3.58266 71.1836 3.96132 71.2223 4.33066 71.2903ZM18.5973 52.0037C18.052 52.0037 17.5186 51.937 17.0186 51.8077L6.69598 72.2703C8.24531 73.3343 9.25731 75.077 9.25731 77.049C9.25731 77.5583 9.18664 78.0503 9.05464 78.5263L29.6773 89.5729C30.1653 89.0156 30.7586 88.5463 31.4239 88.1863L19.3146 51.965C19.0763 51.9906 18.8369 52.0039 18.5973 52.005V52.0037ZM80.3891 92.3836C80.6243 91.2708 81.166 90.2459 81.9531 89.4249L63.2025 64.661C62.425 64.9985 61.5861 65.1718 60.7385 65.1703C59.8985 65.1703 59.1065 65.0063 58.3799 64.7037L39.3906 89.4556C40.1506 90.2689 40.6972 91.2729 40.9252 92.3836H80.3891ZM54.8359 18.8531C54.5034 18.1478 54.3101 17.385 54.2665 16.6065L31.0333 13.3145C30.2666 15.7185 27.9586 17.4678 25.2199 17.4678C25.2146 17.4678 25.2119 17.4624 25.2026 17.4624L21.0106 39.9637C21.7457 40.2519 22.4231 40.6697 23.0106 41.1971L54.8359 18.8531ZM113.545 80.7183L92.8918 91.7529C93.0811 92.3423 93.1891 92.9743 93.1891 93.6263C93.1891 97.0769 90.2931 99.8742 86.7185 99.8742C85.3358 99.8742 84.0545 99.4476 82.9998 98.7302L65.9238 114.314C66.4369 115.14 66.7332 116.081 66.7852 117.052C88.8958 114.937 107.512 101.358 116.205 82.5596C115.169 82.1967 114.25 81.5611 113.545 80.7196V80.7183ZM80.3891 94.8703H40.9252C40.7726 95.5966 40.4864 96.2883 40.0812 96.9102L57.2865 112.516C58.3044 111.835 59.5018 111.472 60.7265 111.473C62.0065 111.473 63.1905 111.857 64.1665 112.506L81.2385 96.9262C80.8385 96.3036 80.5411 95.6116 80.3891 94.8703ZM54.6665 59.2997C54.6665 59.0917 54.6785 58.8823 54.6999 58.673L24.1786 48.9024C23.5899 49.8699 22.7548 50.6636 21.7586 51.2024L33.8639 87.4196C35.0477 87.2913 36.2441 87.4838 37.3279 87.9769L56.2745 63.2703C55.2438 62.2054 54.6673 60.7817 54.6665 59.2997ZM65.9625 56.321L96.4118 46.5584C96.3757 46.2976 96.3556 46.0349 96.3518 45.7717C96.3518 44.861 96.5611 43.993 96.9278 43.2131L65.0825 20.8611C64.2104 21.6331 63.1481 22.1583 62.0052 22.3824L62.0185 53.5717C62.8287 53.7362 63.5965 54.0651 64.2746 54.538C64.9527 55.0108 65.5267 55.6177 65.9612 56.321H65.9625ZM97.2304 48.9117L66.7745 58.6743C66.8007 58.8817 66.8136 59.0906 66.8132 59.2997C66.8132 60.793 66.2292 62.157 65.2732 63.1903L84.0185 87.9583C85.0956 87.4753 86.2827 87.2902 87.4558 87.4223L99.6464 51.217C98.6523 50.674 97.8189 49.8783 97.2304 48.9104V48.9117ZM25.0639 45.7584C25.0639 46.025 25.0399 46.2917 25.0079 46.5544L55.5159 56.3223C55.9493 55.6191 56.5221 55.012 57.199 54.5385C57.8759 54.065 58.6426 53.735 59.4519 53.569L59.4385 22.3878C58.291 22.1656 57.2244 21.6387 56.3505 20.8624L24.4973 43.2144C24.8693 44.0109 25.0627 44.8792 25.0639 45.7584ZM38.3226 98.7222C37.2225 99.4752 35.9196 99.876 34.5866 99.8716C31.0173 99.8716 28.1226 97.0783 28.1226 93.6249C28.1226 92.9729 28.2266 92.3383 28.4199 91.7423L7.89998 80.7436C7.19815 81.5726 6.28835 82.1998 5.26399 82.5609C13.9506 101.358 32.5639 114.934 54.6785 117.054C54.7319 116.058 55.0319 115.129 55.5319 114.324L38.3226 98.7222ZM100.42 39.9757L96.2224 17.4638C93.4958 17.4478 91.2024 15.7024 90.4518 13.3038L67.1612 16.6065C67.1212 17.3857 66.9287 18.1494 66.5945 18.8545L98.4264 41.1971C99.0051 40.6811 99.6744 40.2571 100.42 39.9744" fill="#E51E2D"/>
</svg>
