<svg width="200" height="200" viewBox="0 0 200 200" fill="none" xmlns="http://www.w3.org/2000/svg">
<path d="M105.731 38.7777L125.798 72.4857L132.136 68.708L112.062 35L105.731 38.7777ZM93.8018 45.8688L113.949 79.6391L120.275 75.8614L100.129 42.0912L93.8018 45.8688ZM81.7909 53.0577L93.7929 72.9721L73.522 61.6058L69.9285 68.0529L90.0132 79.3082H67V86.6858H89.2594L69.5693 97.0838L73.0032 103.613L93.4936 92.7909L80.9861 112.323L87.1867 116.308L108.429 83.0014L88.0956 49.2401L81.7909 53.0577ZM92.5714 120.001L112.907 153.755L119.211 149.938L107.205 130.023L127.476 141.385L131.072 134.943L110.989 123.685H134V116.308H111.741L131.428 105.912L127.999 99.3824L107.506 110.207L120.014 90.6678L113.816 86.6858L92.5714 120.001ZM80.78 127.105L100.874 160.902L107.2 157.125L87.1047 123.325L80.78 127.105ZM68.8356 134.201L88.938 168L95.2693 164.216L75.1758 130.423L68.8356 134.201Z" fill="url(#paint0_linear)"/>
<defs>
<linearGradient id="paint0_linear" x1="100.5" y1="35" x2="100.5" y2="168" gradientUnits="userSpaceOnUse">
<stop offset="0.161458" stop-color="#E9FC1C"/>
<stop offset="0.916667" stop-color="#3EBF9C"/>
</linearGradient>
</defs>
</svg>
