<svg width="200" height="200" viewBox="0 0 200 200" fill="none" xmlns="http://www.w3.org/2000/svg">
<path d="M137.734 62.9504L141.953 85.5357C145.462 85.6024 148.284 88.3664 148.284 91.769C148.284 93.8024 147.282 95.5957 145.728 96.7397L156.088 117.296C156.473 117.221 156.869 117.182 157.277 117.182C157.882 117.182 158.454 117.296 159.002 117.453C159.969 113.262 160.46 108.974 160.465 104.673C160.465 87.2997 152.645 71.6998 140.225 60.9531C139.589 61.8298 138.728 62.5195 137.734 62.9504ZM93.6372 60.1465C94.5345 57.7398 96.9172 56.0131 99.7118 56.0131C102.515 56.0131 104.892 57.7398 105.792 60.1465L129.245 56.8251C129.386 55.7851 129.816 54.8478 130.436 54.0585C121.426 48.9438 110.937 45.9998 99.7358 45.9998C88.2599 45.9998 77.8306 48.9332 68.9666 53.9465C69.6485 54.7723 70.0879 55.7711 70.2359 56.8318L93.6372 60.1465ZM130.642 135.581L151.4 124.494C151.274 124.023 151.21 123.537 151.209 123.049C151.209 121.089 152.201 119.361 153.729 118.292L143.416 97.821C142.893 97.9478 142.357 98.0136 141.818 98.017C141.574 98.017 141.33 97.9997 141.094 97.9757L128.904 134.193C129.565 134.553 130.157 135.02 130.641 135.58L130.642 135.581ZM43.3307 117.29L53.7013 96.737C52.1453 95.593 51.1333 93.7944 51.1333 91.7597C51.1333 88.3464 53.96 85.5811 57.4786 85.5184L61.6879 62.9251C60.6776 62.4768 59.8083 61.7619 59.1733 60.8571C46.5866 71.7998 39 87.6784 39 104.67C39 109.062 39.5173 113.334 40.4653 117.454C41.0222 117.282 41.601 117.19 42.184 117.184C42.5827 117.184 42.9613 117.222 43.3307 117.29ZM57.5973 98.0037C57.052 98.0037 56.5186 97.937 56.0186 97.8077L45.696 118.27C47.2453 119.334 48.2573 121.077 48.2573 123.049C48.2573 123.558 48.1866 124.05 48.0546 124.526L68.6773 135.573C69.1653 135.016 69.7586 134.546 70.4239 134.186L58.3146 97.965C58.0763 97.9906 57.8369 98.0039 57.5973 98.005V98.0037ZM119.389 138.384C119.624 137.271 120.166 136.246 120.953 135.425L102.203 110.661C101.425 110.998 100.586 111.172 99.7385 111.17C98.8985 111.17 98.1065 111.006 97.3799 110.704L78.3906 135.456C79.1506 136.269 79.6972 137.273 79.9252 138.384H119.389ZM93.8359 64.8531C93.5034 64.1478 93.3101 63.385 93.2665 62.6065L70.0333 59.3145C69.2666 61.7185 66.9586 63.4678 64.2199 63.4678C64.2146 63.4678 64.2119 63.4624 64.2026 63.4624L60.0106 85.9637C60.7457 86.2519 61.4231 86.6697 62.0106 87.1971L93.8359 64.8531ZM152.545 126.718L131.892 137.753C132.081 138.342 132.189 138.974 132.189 139.626C132.189 143.077 129.293 145.874 125.718 145.874C124.336 145.874 123.054 145.448 122 144.73L104.924 160.314C105.437 161.14 105.733 162.081 105.785 163.052C127.896 160.937 146.512 147.358 155.205 128.56C154.169 128.197 153.25 127.561 152.545 126.72V126.718ZM119.389 140.87H79.9252C79.7726 141.597 79.4864 142.288 79.0812 142.91L96.2865 158.516C97.3044 157.835 98.5018 157.472 99.7265 157.473C101.007 157.473 102.191 157.857 103.167 158.506L120.238 142.926C119.838 142.304 119.541 141.612 119.389 140.87ZM93.6665 105.3C93.6665 105.092 93.6785 104.882 93.6999 104.673L63.1786 94.9024C62.5899 95.8699 61.7548 96.6636 60.7586 97.2024L72.8639 133.42C74.0477 133.291 75.2441 133.484 76.3279 133.977L95.2745 109.27C94.2438 108.205 93.6673 106.782 93.6665 105.3ZM104.963 102.321L135.412 92.5584C135.376 92.2976 135.356 92.0349 135.352 91.7717C135.352 90.861 135.561 89.993 135.928 89.2131L104.083 66.8611C103.21 67.6331 102.148 68.1583 101.005 68.3824L101.019 99.5717C101.829 99.7362 102.597 100.065 103.275 100.538C103.953 101.011 104.527 101.618 104.961 102.321H104.963ZM136.23 94.9117L105.774 104.674C105.801 104.882 105.814 105.091 105.813 105.3C105.813 106.793 105.229 108.157 104.273 109.19L123.018 133.958C124.096 133.475 125.283 133.29 126.456 133.422L138.646 97.217C137.652 96.674 136.819 95.8783 136.23 94.9104V94.9117ZM64.0639 91.7584C64.0639 92.025 64.0399 92.2917 64.0079 92.5544L94.5159 102.322C94.9493 101.619 95.5221 101.012 96.199 100.538C96.8759 100.065 97.6426 99.735 98.4519 99.569L98.4385 68.3878C97.291 68.1656 96.2244 67.6387 95.3505 66.8624L63.4973 89.2144C63.8693 90.0109 64.0627 90.8792 64.0639 91.7584ZM77.3226 144.722C76.2225 145.475 74.9196 145.876 73.5866 145.872C70.0173 145.872 67.1226 143.078 67.1226 139.625C67.1226 138.973 67.2266 138.338 67.4199 137.742L46.9 126.744C46.1982 127.573 45.2884 128.2 44.264 128.561C52.9506 147.358 71.5639 160.934 93.6785 163.054C93.7319 162.058 94.0319 161.129 94.5319 160.324L77.3226 144.722ZM139.42 85.9757L135.222 63.4638C132.496 63.4478 130.202 61.7024 129.452 59.3038L106.161 62.6065C106.121 63.3857 105.929 64.1494 105.595 64.8545L137.426 87.1971C138.005 86.6811 138.674 86.2571 139.42 85.9744" fill="#E51E2D"/>
</svg>
