<svg width="200" height="200" viewBox="0 0 200 200" fill="none" xmlns="http://www.w3.org/2000/svg">
<path d="M117.897 119.3H124.743L125.365 118.677V109.964L126.299 109.03H135.013L135.635 108.408V101.561L135.013 100.939H126.299L125.365 100.005V91.292L124.743 90.6696H117.897L117.274 91.292V100.005L116.341 100.939H107.627L107.005 101.561V108.408L107.627 109.03H116.341L117.274 109.964V118.677L117.897 119.3Z" fill="#222B37"/>
<path d="M63.751 101.562V108.408L64.6846 109.031H91.7587L92.6923 108.408V101.562L91.7587 100.939H64.6846L63.751 101.562Z" fill="#222B37"/>
<path d="M143.412 125.212C142.79 125.524 142.478 125.524 141.856 125.835C140.922 127.702 139.989 129.569 138.744 131.125C137.188 133.615 135.01 135.793 133.143 137.972C130.964 140.15 128.786 142.017 126.296 143.573C123.807 145.129 121.006 146.685 118.205 147.93C112.292 150.419 106.38 151.664 99.8445 151.664C93.3094 151.664 87.3966 150.419 81.4839 147.93C78.6831 146.685 75.8824 145.44 73.3928 143.573C70.9032 142.017 68.7249 139.839 66.5465 137.972C64.3681 135.793 62.5009 133.615 60.9449 131.125C59.7002 129.569 58.7666 127.702 57.833 125.835C57.2106 125.524 56.8994 125.524 56.277 125.212L50.0531 128.013C49.7419 128.636 49.7419 129.258 49.4307 129.88C58.4554 148.241 77.7496 161 99.5333 161C121.317 161 140.611 148.241 149.636 129.88C149.325 129.258 149.325 128.947 149.014 128.324L143.412 125.212Z" fill="#222B37"/>
<path d="M56.277 84.7568C56.8994 84.4456 57.2106 84.4456 57.833 84.1345C58.7666 82.2673 59.7002 80.4001 60.9449 78.8441C62.5009 76.3545 64.6793 73.865 66.5465 71.6866C68.7249 69.8194 71.2144 67.641 73.704 66.0851C76.1936 64.5291 78.9943 62.9731 81.7951 61.7283C87.7078 59.2387 93.6206 57.9939 100.156 57.9939C106.691 57.9939 112.604 59.2387 118.516 61.7283C121.317 62.9731 124.118 64.2179 126.607 66.0851C129.097 67.641 131.275 69.8194 133.454 71.6866C135.632 73.865 137.499 76.0433 139.055 78.5329C140.3 80.0889 141.234 81.9561 142.167 83.8233C142.79 84.1345 143.101 84.1345 143.723 84.4456L149.947 81.6449C150.258 81.0225 150.258 80.7113 150.57 80.0889C140.922 61.7283 121.939 48.9692 99.8445 48.9692C77.7496 48.9692 58.7666 61.7283 49.4307 80.0889C49.7419 80.7113 49.7419 81.0225 50.0531 81.6449L56.277 84.7568Z" fill="#222B37"/>
</svg>
