<svg width="84" height="110" viewBox="0 0 84 110" fill="none" xmlns="http://www.w3.org/2000/svg">
<path d="M78.9007 79.1618C77.2722 77.5335 75.3386 76.2423 73.2104 75.3623C71.0823 74.4822 68.8015 74.0306 66.4986 74.0331H65.8163L59.5391 44.5575C62.6842 43.4497 65.5372 41.6433 67.8837 39.2742C71.0149 36.1708 73.1715 32.2203 74.0884 27.9082C75.0054 23.596 74.6428 19.1099 73.0453 15.0009C71.4477 10.892 68.6847 7.3391 65.0958 4.77882C61.5068 2.21853 57.2482 0.762299 52.843 0.589024C48.4378 0.415749 44.0779 1.53297 40.2989 3.80345C36.52 6.07392 33.4865 9.39877 31.5711 13.3696C29.6557 17.3403 28.9419 21.7841 29.5173 26.155C30.0927 30.5259 31.9323 34.6335 34.8101 37.9733L19.0375 55.8201C17.237 54.8912 15.2455 54.3929 13.2197 54.3645C10.4113 54.3623 7.68315 55.3013 5.47102 57.0314C3.25888 58.7616 1.69036 61.1832 1.01598 63.9094C0.3416 66.6357 0.600263 69.5092 1.75066 72.0712C2.90105 74.6332 4.87681 76.7357 7.36236 78.043C9.84791 79.3504 12.6999 79.787 15.4627 79.2833C18.2256 78.7796 20.7399 77.3645 22.6042 75.2642C24.4684 73.1638 25.5751 70.4992 25.7473 67.6961C25.9195 64.893 25.1474 62.113 23.5543 59.8002L39.327 42.0398C43.0468 44.519 47.4134 45.8501 51.8837 45.8676C52.4955 45.8676 53.0208 45.7902 53.569 45.7902L59.8462 75.2658C57.6323 76.143 55.6242 77.4696 53.9488 79.1618C51.4842 81.6165 49.8037 84.7476 49.12 88.1582C48.4364 91.5688 48.7804 95.1057 50.1085 98.3206C51.4367 101.536 53.6891 104.284 56.5805 106.218C59.472 108.152 62.8723 109.184 66.3508 109.183C68.6558 109.2 70.9409 108.755 73.071 107.874C75.2011 106.994 77.1331 105.695 78.7528 104.055C80.402 102.433 81.7145 100.501 82.6149 98.3702C83.5153 96.2395 83.9859 93.952 83.9997 91.6389C84.0134 89.3258 83.57 87.0329 82.695 84.8916C81.8199 82.7504 80.5305 80.8032 78.9007 79.1618ZM17.8116 71.5928C17.2101 72.1993 16.4944 72.6807 15.7059 73.0092C14.9174 73.3377 14.0716 73.5068 13.2174 73.5068C12.3632 73.5068 11.5174 73.3377 10.7289 73.0092C9.9404 72.6807 9.22473 72.1993 8.62321 71.5928C7.70831 70.6796 7.08426 69.5161 6.82972 68.2488C6.57518 66.9815 6.70156 65.6672 7.19292 64.4716C7.68429 63.2761 8.51863 62.2527 9.59076 61.5307C10.6629 60.8086 11.9248 60.4202 13.2174 60.4143C14.9409 60.4215 16.5918 61.1093 17.8106 62.3281C19.0293 63.5468 19.7171 65.1977 19.7243 66.9212C19.7347 67.7883 19.5707 68.6486 19.2421 69.4511C18.9135 70.2536 18.4271 70.9819 17.8116 71.5928ZM42.3132 32.8514C39.7719 30.314 38.3405 26.8722 38.3331 23.281C38.3193 21.5001 38.6646 19.7348 39.3485 18.0904C40.0323 16.446 41.0407 14.9564 42.3132 13.7105C44.8507 11.1692 48.2924 9.73783 51.8837 9.73038C53.6645 9.7166 55.4298 10.062 57.0742 10.7458C58.7186 11.4297 60.2082 12.438 61.4541 13.7105C63.3456 15.6055 64.6333 18.0184 65.1547 20.6446C65.676 23.2708 65.4077 25.9926 64.3836 28.4664C63.3594 30.9403 61.6254 33.0552 59.4003 34.5444C57.1752 36.0336 54.5588 36.8303 51.8814 36.8338C50.1008 36.847 48.3357 36.5011 46.6918 35.8169C45.0478 35.1327 43.5586 34.1241 42.3132 32.8514ZM73.9267 99.076C71.9561 101.039 69.2867 102.138 66.5055 102.133C65.1261 102.142 63.7587 101.876 62.4835 101.35C61.2083 100.824 60.0511 100.049 59.0797 99.0692C58.1061 98.0935 57.3344 96.9355 56.8088 95.6613C56.2831 94.3871 56.0137 93.0218 56.0162 91.6434C56.0066 90.264 56.2726 88.8966 56.7987 87.6215C57.3248 86.3463 58.1003 85.1891 59.0797 84.2177C60.0561 83.2457 61.2145 82.4757 62.4887 81.9516C63.7628 81.4275 65.1277 81.1596 66.5055 81.1632C67.8849 81.1536 69.2523 81.4197 70.5274 81.9458C71.8026 82.4719 72.9598 83.2474 73.9312 84.2268C75.8811 86.2066 76.974 88.8738 76.974 91.6525C76.974 94.4313 75.8811 97.0985 73.9312 99.0783L73.9267 99.076Z" fill="#30A9FF"/>
</svg>
