<svg width="67" height="133" viewBox="0 0 67 133" fill="none" xmlns="http://www.w3.org/2000/svg">
<path d="M38.7307 3.77766L58.7976 37.4857L65.1356 33.708L45.062 0L38.7307 3.77766ZM26.8018 10.8688L46.9485 44.6391L53.2754 40.8614L33.1287 7.09117L26.8018 10.8688ZM14.7909 18.0577L26.7929 37.9721L6.52199 26.6058L2.92847 33.0529L23.0132 44.3082H0V51.6858H22.2594L2.56933 62.0838L6.00324 68.6131L26.4936 57.7909L13.9861 77.3233L20.1867 81.3075L41.4286 48.0014L21.0956 14.2401L14.7909 18.0577ZM25.5714 85.0008L45.9066 118.755L52.2114 114.938L40.2049 95.0235L60.4758 106.385L64.0715 99.9427L43.989 88.6852H67V81.3075H44.7406L64.4284 70.9117L60.999 64.3824L40.5064 75.2068L53.0139 55.6678L46.8155 51.6858L25.5714 85.0008ZM13.78 92.1053L33.8735 125.902L40.2004 122.125L20.1047 88.3254L13.78 92.1053ZM1.83556 99.2009L21.938 133L28.2693 129.216L8.17576 95.4232L1.83556 99.2009Z" fill="url(#paint0_linear)"/>
<defs>
<linearGradient id="paint0_linear" x1="33.5" y1="0" x2="33.5" y2="133" gradientUnits="userSpaceOnUse">
<stop offset="0.161458" stop-color="#E9FC1C"/>
<stop offset="0.916667" stop-color="#3EBF9C"/>
</linearGradient>
</defs>
</svg>
