<svg width="200" height="200" viewBox="0 0 200 200" fill="none" xmlns="http://www.w3.org/2000/svg">
<g clip-path="url(#clip0)">
<path d="M54.535 101.098C55.1324 108.941 61.2085 111.626 68.1798 111.626C74.055 111.626 77.8402 109.542 77.8402 106.067C77.8402 102.394 74.1555 101.799 69.3746 100.905L57.9219 98.9198C47.6641 97.0333 40.4936 91.2754 40.4936 80.3568C40.4936 67.65 50.4536 60.0056 66.088 60.0056C83.4177 60.0056 92.7786 68.444 93.0782 82.3416L77.5424 82.6402C77.0437 76.1885 72.3633 73.2094 65.8906 73.2094C60.3132 73.2094 57.1272 75.3928 57.1272 78.8672C57.1272 81.7462 59.5168 82.837 63.4024 83.5274L75.2533 85.6124C88.3995 87.8959 94.3751 94.7463 94.3751 104.971C94.3751 118.273 82.8221 124.925 68.1816 124.925C51.1515 124.925 39.001 116.685 39.001 101.597L54.535 101.098Z" fill="#1A1A1A"/>
<path d="M128.432 124.923C110.207 124.923 95.8647 111.719 95.8647 92.4607C95.8647 73.2021 110.206 59.9983 128.432 59.9983C146.659 59.9983 160.998 73.2021 160.998 92.4607C160.998 111.719 146.657 124.923 128.432 124.923ZM128.432 74.8901C119.17 74.8901 113.295 81.839 113.295 92.4607C113.295 103.082 119.17 110.031 128.432 110.031C137.694 110.031 143.57 103.082 143.57 92.4607C143.57 81.839 137.694 74.8901 128.432 74.8901Z" fill="#1A1A1A"/>
<path d="M73.5917 140.171V128.463H78.8419V149.598H74.2653L65.1105 137.084V149.598H59.8604V128.463H65.3166L73.5917 140.171Z" fill="#1A1A1A"/>
<path d="M113.006 149.598C112.401 148.331 112.101 146.941 112.132 145.538C111.959 143.122 110.92 142.587 109.001 142.587H105.192V149.598H99.5713V128.463H110.274C115.76 128.463 118.485 131.052 118.485 135.172C118.575 136.48 118.159 137.773 117.321 138.784C116.483 139.795 115.289 140.448 113.983 140.607C114.999 140.726 115.936 141.212 116.618 141.972C117.3 142.732 117.68 143.714 117.685 144.734C117.988 147.887 118.089 148.826 118.795 149.598H113.006ZM109.271 138.193C111.696 138.193 112.908 137.588 112.908 135.643C112.908 133.933 111.696 133.027 109.271 133.027H105.199V138.193H109.271Z" fill="#1A1A1A"/>
<path d="M119.585 139.031C119.535 137.583 119.784 136.14 120.315 134.791C120.846 133.442 121.649 132.216 122.673 131.188C123.698 130.16 124.924 129.352 126.274 128.815C127.624 128.277 129.07 128.02 130.523 128.061C136.757 128.061 140.384 131.449 140.855 136.717L135.302 136.919C135.251 136.364 135.089 135.826 134.827 135.334C134.565 134.842 134.208 134.407 133.776 134.054C133.344 133.701 132.846 133.436 132.311 133.276C131.776 133.116 131.214 133.064 130.658 133.122C127.327 133.122 125.476 135.436 125.476 139.026C125.476 142.716 127.427 145.166 131.096 145.166C132.001 145.218 132.903 145.016 133.699 144.583C134.495 144.15 135.153 143.503 135.598 142.716H130.923V138.624H141.02V149.594H136.038V147.245C135.347 148.205 134.413 148.965 133.331 149.448C132.249 149.932 131.058 150.121 129.879 149.997C124.028 150 119.585 145.573 119.585 139.031Z" fill="#1A1A1A"/>
<path d="M154.819 128.463H160.979L152.84 141.581V149.598H147.287V141.581L139.148 128.463H145.509L150.288 136.078L154.819 128.463Z" fill="#1A1A1A"/>
<path d="M97.4568 144.901H86.6863V141.244H94.9979V136.615H86.6863V133.163H97.4568V128.467H81.0674V149.598H97.4568V144.901Z" fill="#1A1A1A"/>
<path d="M57.6599 144.901H46.8895V141.244H55.2011V136.615H46.8895V133.163H57.6599V128.466H41.2705V149.598H57.6599V144.901Z" fill="#1A1A1A"/>
</g>
<defs>
<clipPath id="clip0">
<rect width="122" height="90" fill="white" transform="translate(39 60)"/>
</clipPath>
</defs>
</svg>
