<svg width="129" height="128" viewBox="0 0 129 128" fill="none" xmlns="http://www.w3.org/2000/svg">
<path fill-rule="evenodd" clip-rule="evenodd" d="M93.0665 99.5763C89.0172 103.674 84.9861 107.791 80.9184 111.859C76.0323 116.745 71.018 121.631 66.1685 126.572C65.0141 127.751 64.4584 127.72 63.3101 126.572C47.5199 110.835 31.699 95.1258 15.8477 79.4455C13.3008 76.923 10.815 74.3334 8.18873 71.9026C7.07103 70.8643 7.25426 70.3512 8.29867 69.4595C19.726 59.4796 32.8147 52.7551 47.6929 49.9945C75.049 44.9129 99.5223 51.3076 120.899 69.2519C122.23 70.3695 122.292 70.9437 120.997 72.1591C111.53 81.0823 101.507 89.1688 89.1576 93.8351C77.376 98.2936 65.576 98.1104 53.8433 93.7068C49.1167 92.0391 45.0366 88.923 42.1838 84.8019C37.7985 78.34 38.4215 70.3451 43.8268 64.6833C48.6396 59.6445 54.8205 57.3542 61.5389 56.4503C66.4728 55.6911 71.5168 56.1289 76.2461 57.7267C79.0512 58.634 81.543 60.315 83.4348 62.5762C86.9711 66.9432 86.5252 72.6966 82.1522 76.2268C76.8202 80.5021 70.6881 81.7908 64.0186 80.3006C61.856 79.8408 59.9049 78.6817 58.4668 77.0024C57.0559 75.3839 55.2114 75.1701 53.8494 76.2756C52.4874 77.3811 52.3775 79.3844 53.8494 81.1129C56.5551 84.2583 60.1525 85.8035 64.1224 86.4754C72.2212 87.8557 79.8923 86.6342 86.7207 81.8885C95.7966 75.5732 95.9737 64.9276 87.1971 58.1726C81.4986 53.769 74.8413 52.4436 67.8176 52.3154C58.2164 52.1444 49.232 54.3065 41.3898 60.0415C28.6921 69.3374 28.5027 84.8324 40.8951 94.5497C47.1676 99.4663 54.4602 101.824 62.2718 102.899C72.3027 104.304 82.5255 103.204 92.0282 99.6984C92.358 99.5763 92.6695 99.3319 93.0909 99.5763" fill="#05539D"/>
<path fill-rule="evenodd" clip-rule="evenodd" d="M2.77318 66.2835C1.85835 65.8017 1.08079 65.0956 0.513353 64.2313C-0.0607643 63.4678 0.867596 63.0892 1.28291 62.6739C18.9706 45.1002 36.6583 27.559 54.346 10.0505C57.3571 7.06997 60.4537 4.20549 63.3914 1.12724C64.613 -0.19201 65.2237 0.235524 66.2742 1.27382C78.1068 13.1104 89.9637 24.9185 101.845 36.6981C110.506 45.2895 119.179 53.8728 127.864 62.4479C128.517 63.0953 129.739 63.6694 128.395 64.8421C127.43 65.6971 126.886 66.7538 125.25 65.4528C112.341 55.2699 97.0246 48.5869 80.7799 46.0489C61.7941 42.8735 42.294 45.328 24.6874 53.1093C17.3229 56.3369 10.39 60.4712 4.04967 65.4162C3.64657 65.7216 3.21903 65.9903 2.7915 66.2835" fill="#6BB8D4"/>
</svg>
