<svg width="125" height="73" viewBox="0 0 125 73" fill="none" xmlns="http://www.w3.org/2000/svg">
<path d="M38.9124 34.8942C37.0771 35.4524 31.0383 51.1139 27.8672 59.7801C33.5606 63.7128 39.5014 67.2442 44.982 69.6447C55.9833 74.457 59.4185 72.5007 66.2474 69.4144C71.1438 67.2049 78.8218 62.0355 85.5476 57.1255C77.3779 51.7632 67.0966 45.2676 61.213 42.4902C50.1833 37.2729 41.5724 34.0863 38.9124 34.8942Z" fill="#0D6DB5"/>
<path d="M43.4414 26.6888C43.4414 26.6888 53.4791 20.7873 69.5775 15.0382C78.2055 11.9581 86.7872 10.4379 92.8972 9.69378C89.4526 8.72011 86.2313 7.81997 83.8024 7.14778C76.1142 5.02928 65.0418 2.41638 55.77 0.984863C55.3335 3.20372 54.2645 6.83269 51.568 12.0449C47.9153 19.0823 43.4414 26.6888 43.4414 26.6888Z" fill="#0D6DB5"/>
<path d="M48.3646 0.10673C39.937 -0.472101 38.6463 1.43905 37.0117 2.58037C32.6833 4.94977 14.75 15.6667 6.06056 23.2374C-2.17378 30.4106 -0.800998 34.8938 3.0357 39.4042C6.14225 43.0565 11.5871 47.3876 20.0595 54.0174C20.4461 54.3216 20.8355 54.6211 21.2311 54.9288C24.6337 47.376 32.0496 30.998 35.6949 23.3199C39.9654 14.3103 45.7681 4.4324 48.3646 0.10673Z" fill="#0D6DB5"/>
<path d="M122.038 18.9693C119.096 17.4328 116.472 16.6026 114.191 15.8585C113.036 15.485 110.012 14.5923 106.217 13.4961C99.4932 14.3791 88.348 16.06 77.5466 18.6464C66.3613 21.3282 47.5742 30.4522 47.5742 30.4522C47.5742 30.4522 71.3242 38.0933 93.5804 51.0287C94.3246 50.4386 95.0119 49.8874 95.6374 49.3755C102.538 43.7233 120.07 29.1658 123.811 22.8021C124.732 21.2263 123.952 19.9679 122.038 18.9693Z" fill="#0D6DB5"/>
<path d="M77.5558 18.6435C88.3466 16.059 99.4965 14.3789 106.216 13.4932C102.23 12.3386 97.378 10.9573 92.8994 9.6938C86.7937 10.438 78.2085 11.9582 69.5821 15.0383C53.4783 20.7873 43.4405 26.6888 43.4405 26.6888C43.4405 26.6888 47.9171 19.08 51.5675 12.0484C54.2683 6.83544 55.3326 3.20724 55.7714 0.98722C54.6643 0.814504 53.5763 0.661628 52.5267 0.527034C50.9762 0.329033 49.5968 0.194436 48.3699 0.1073C45.7694 4.43297 39.9664 14.3105 35.701 23.3251C32.0603 31.0005 24.6394 47.3804 21.2349 54.9317C23.3798 56.5803 25.6088 58.2125 27.877 59.7802C31.0482 51.1141 37.0847 35.4526 38.9223 34.8944C41.583 34.0868 50.1912 37.2735 61.2263 42.4865C67.1099 45.2639 77.3943 51.7606 85.5582 57.1233C88.5364 54.9469 91.3158 52.8222 93.5899 51.0258C71.3329 38.0904 47.5884 30.4481 47.5884 30.4481C47.5884 30.4481 66.36 21.3229 77.5558 18.6435Z" fill="white"/>
</svg>
