<svg width="164" height="36" viewBox="0 0 164 36" fill="none" xmlns="http://www.w3.org/2000/svg">
<g clip-path="url(#clip0)">
<path d="M116.865 11.0027C115.471 11.0027 113.794 11.0027 112.681 11.0027V0H108.996V34.3978C110.473 35.3134 113.694 36.0163 116.699 36.0163C123.506 36.0163 129.068 31.9292 129.068 23.8529C129.068 16.1035 123.622 11.0027 116.865 11.0027ZM116.566 32.8283C115.321 32.8283 113.428 32.5831 112.681 32.1744V14.1907C113.794 14.1907 114.989 14.1907 116.616 14.1907C121.315 14.1907 125.266 17.624 125.266 23.7384C125.266 29.2807 122.012 32.8283 116.566 32.8283Z" fill="#0059B2"/>
<path d="M163.999 23.2809C163.999 15.7604 160.795 11.0029 154.785 11.0029C149.024 11.0029 145.172 16.0057 145.172 23.2809C145.172 30.2454 148.874 36.0002 156.329 36.0002C158.985 36.0002 161.857 35.2482 163.916 33.8749L162.721 31.2427C161.127 32.1582 159.118 32.943 156.926 32.943C151.879 32.943 149.123 29.428 149.024 24.3435H163.983V23.2809H163.999ZM149.09 21.8095C149.14 17.804 151.398 14.5343 155.001 14.5343C158.753 14.5343 160.513 17.804 160.562 21.8095H149.09Z" fill="#0059B2"/>
<path d="M102.338 19.1444C102.338 13.4387 99.1337 11.2643 94.2194 11.2643H78.6794V0H74.9936V10.8065C73.8813 10.8065 72.6693 10.8065 71.258 10.8065C64.5008 10.8065 59.188 15.9074 59.188 23.6403C59.188 31.7166 64.5506 35.8038 71.3577 35.8038C74.3627 35.8038 77.2018 35.1008 78.6794 34.1853V14.0109L93.4557 14.109C96.4109 14.109 98.6523 15.7275 98.6523 19.3569V20.8774L94.2858 21.0245C91.8784 21.1226 90.0521 21.3842 88.4417 22.1853C86.0343 23.297 84.4737 25.4714 84.4737 28.6431C84.4737 33.2371 87.6946 36.0163 92.0112 36.0163C94.9665 36.0163 97.2908 34.8556 99.1337 33.0899L99.8476 36H103.102C102.803 34.921 102.338 32.0763 102.338 27.3842V19.1444ZM75.0102 31.9782C73.8978 32.3869 72.8353 32.6322 71.5735 32.6322C66.1113 32.6322 63.0066 29.1008 63.0066 23.5422C63.0066 17.4278 66.7588 13.9946 71.4573 13.9946C73.0843 13.9946 73.8978 13.9946 75.0102 13.9946V31.9782ZM98.6523 29.7384C97.5399 30.8992 95.4812 32.861 92.5259 32.861C89.8197 32.861 88.1927 31.0463 88.1927 28.4142C88.1927 26.8447 88.9232 25.4877 90.2846 24.7357C91.3305 24.1798 92.5591 23.8692 94.6178 23.8202L98.6523 23.673V29.7384Z" fill="#0059B2"/>
<path d="M5.77769 32.6975C4.5325 32.6975 3.68577 32.1417 3.68577 30.1798V0H0V31.3406C0 34.218 1.69346 35.9837 4.69852 35.9837C5.79429 35.9837 7.1723 35.7384 8.13525 35.2807L7.27192 32.3379C6.92326 32.5014 6.17615 32.6975 5.77769 32.6975Z" fill="#0059B2"/>
<path d="M21.1988 10.8066C15.4377 10.8066 11.5859 15.8094 11.5859 23.0846C11.5859 30.0491 15.2883 35.8039 22.7429 35.8039C25.3993 35.8039 28.2715 35.0519 30.3302 33.6786L29.1348 31.0464C27.541 31.962 25.5321 32.8448 23.3405 32.8448C18.2934 32.8448 15.5373 29.4279 15.4377 24.3434H30.4298V23.0846C30.4298 15.5641 27.2089 10.8066 21.1988 10.8066ZM15.4875 21.8094C15.5373 17.8039 17.7953 14.5342 21.398 14.5342C25.1502 14.5342 26.9101 17.8039 26.9599 21.8094H15.4875Z" fill="#0059B2"/>
<path d="M47.6843 11.1665C44.6294 11.1665 42.1225 12.9158 39.5159 15.1393L39.2004 12.3436H35.5977V35.9676H39.3V18.082C41.5082 16.1202 44.1646 14.5017 46.821 14.5017C50.1747 14.5017 51.2207 17.3136 51.2207 20.894L51.3369 35.9839H54.4416V19.5534C54.4249 13.5371 51.3867 11.1665 47.6843 11.1665Z" fill="#0059B2"/>
<path d="M140.525 32.5177C139.28 32.5177 138.532 31.9619 138.532 30V0H135.179V31.3733C135.179 34.2507 136.623 35.9183 139.628 35.9183C140.724 35.9183 141.986 35.6076 142.932 35.1662L142.069 32.2071C141.72 32.3379 140.923 32.5177 140.525 32.5177Z" fill="#0059B2"/>
</g>
<defs>
<clipPath id="clip0">
<rect width="164" height="36" fill="white"/>
</clipPath>
</defs>
</svg>
