<svg width="102" height="113" viewBox="0 0 102 113" fill="none" xmlns="http://www.w3.org/2000/svg">
<path d="M68.8968 71.2996H75.7431L76.3655 70.6772V61.9637L77.2991 61.0302H86.0126L86.635 60.4078V53.5614L86.0126 52.939H77.2991L76.3655 52.0055V43.292L75.7431 42.6696H68.8968L68.2744 43.292V52.0055L67.3408 52.939H58.6273L58.0049 53.5614V60.4078L58.6273 61.0302H67.3408L68.2744 61.9637V70.6772L68.8968 71.2996Z" fill="#222B37"/>
<path d="M14.751 53.5618V60.4082L15.6846 61.0306H42.7587L43.6923 60.4082V53.5618L42.7587 52.9395H15.6846L14.751 53.5618Z" fill="#222B37"/>
<path d="M94.412 77.2125C93.7896 77.5237 93.4784 77.5237 92.856 77.8349C91.9225 79.702 90.9889 81.5692 89.7441 83.1252C88.1881 85.6148 86.0097 87.7931 84.1425 89.9715C81.9642 92.1499 79.7858 94.0171 77.2962 95.5731C74.8066 97.129 72.0059 98.685 69.2051 99.9298C63.2924 102.419 57.3796 103.664 50.8445 103.664C44.3094 103.664 38.3966 102.419 32.4839 99.9298C29.6831 98.685 26.8824 97.4402 24.3928 95.5731C21.9032 94.0171 19.7249 91.8387 17.5465 89.9715C15.3681 87.7931 13.5009 85.6148 11.9449 83.1252C10.7002 81.5692 9.76656 79.702 8.83297 77.8349C8.21058 77.5237 7.89938 77.5237 7.27699 77.2125L1.05306 80.0132C0.741861 80.6356 0.741861 81.258 0.430664 81.8804C9.45537 100.241 28.7496 113 50.5333 113C72.3171 113 91.6113 100.241 100.636 81.8804C100.325 81.258 100.325 80.9468 100.014 80.3244L94.412 77.2125Z" fill="#222B37"/>
<path d="M7.27699 36.7568C7.89938 36.4456 8.21058 36.4456 8.83297 36.1345C9.76656 34.2673 10.7002 32.4001 11.9449 30.8441C13.5009 28.3545 15.6793 25.865 17.5465 23.6866C19.7249 21.8194 22.2144 19.641 24.704 18.0851C27.1936 16.5291 29.9943 14.9731 32.7951 13.7283C38.7078 11.2387 44.6206 9.99394 51.1557 9.99394C57.6908 9.99394 63.6036 11.2387 69.5163 13.7283C72.3171 14.9731 75.1178 16.2179 77.6074 18.0851C80.097 19.641 82.2754 21.8194 84.4537 23.6866C86.6321 25.865 88.4993 28.0433 90.0553 30.5329C91.3001 32.0889 92.2337 33.9561 93.1672 35.8233C93.7896 36.1345 94.1008 36.1345 94.7232 36.4456L100.947 33.6449C101.258 33.0225 101.258 32.7113 101.57 32.0889C91.9225 13.7283 72.9395 0.969238 50.8445 0.969238C28.7496 0.969238 9.76656 13.7283 0.430664 32.0889C0.741861 32.7113 0.741861 33.0225 1.05306 33.6449L7.27699 36.7568Z" fill="#222B37"/>
</svg>
