<svg width="122" height="90" viewBox="0 0 122 90" fill="none" xmlns="http://www.w3.org/2000/svg">
<g clip-path="url(#clip0)">
<path d="M15.535 41.098C16.1324 48.9409 22.2085 51.6265 29.1798 51.6265C35.055 51.6265 38.8402 49.5415 38.8402 46.0671C38.8402 42.3942 35.1555 41.7987 30.3746 40.9047L18.9219 38.9198C8.66406 37.0333 1.4936 31.2754 1.4936 20.3568C1.4936 7.65002 11.4536 0.00561523 27.088 0.00561523C44.4177 0.00561523 53.7786 8.44397 54.0782 22.3416L38.5424 22.6402C38.0437 16.1885 33.3633 13.2094 26.8906 13.2094C21.3132 13.2094 18.1272 15.3928 18.1272 18.8672C18.1272 21.7462 20.5168 22.837 24.4024 23.5274L36.2533 25.6124C49.3995 27.8959 55.3751 34.7463 55.3751 44.9711C55.3751 58.2733 43.8221 64.9252 29.1816 64.9252C12.1515 64.9252 0.000976562 56.6854 0.000976562 41.5968L15.535 41.098Z" fill="#1A1A1A"/>
<path d="M89.4322 64.9231C71.2074 64.9231 56.8647 51.7193 56.8647 32.4607C56.8647 13.2021 71.2056 -0.00170898 89.4322 -0.00170898C107.659 -0.00170898 121.998 13.2021 121.998 32.4607C121.998 51.7193 107.657 64.9231 89.4322 64.9231ZM89.4322 14.8901C80.17 14.8901 74.2949 21.839 74.2949 32.4607C74.2949 43.0824 80.17 50.0313 89.4322 50.0313C98.6944 50.0313 104.57 43.0824 104.57 32.4607C104.57 21.839 98.6944 14.8901 89.4322 14.8901Z" fill="#1A1A1A"/>
<path d="M34.5917 80.1706V68.4631H39.8419V89.5979H35.2653L26.1105 77.0844V89.5979H20.8604V68.4631H26.3166L34.5917 80.1706Z" fill="#1A1A1A"/>
<path d="M74.0064 89.5978C73.4006 88.3314 73.1011 86.941 73.132 85.5383C72.9588 83.1219 71.9199 82.5868 70.0013 82.5868H66.1919V89.5978H60.5713V68.4631H71.274C76.7596 68.4631 79.4853 71.0521 79.4853 75.172C79.5753 76.4802 79.1586 77.7729 78.321 78.784C77.4835 79.7952 76.2889 80.4476 74.9832 80.6072C75.9992 80.7263 76.9363 81.2117 77.6182 81.9718C78.3001 82.7319 78.6795 83.7143 78.6852 84.734C78.9882 87.8874 79.0887 88.8263 79.7951 89.5978H74.0064ZM70.2715 78.1925C72.6957 78.1925 73.9077 77.5884 73.9077 75.6432C73.9077 73.9328 72.6957 73.0266 70.2715 73.0266H66.1989V78.1925H70.2715Z" fill="#1A1A1A"/>
<path d="M80.5849 79.0314C80.5351 77.5831 80.7835 76.14 81.3147 74.791C81.8459 73.4421 82.6486 72.2159 83.6734 71.188C84.6983 70.1601 85.9235 69.3524 87.2736 68.8147C88.6236 68.2769 90.07 68.0203 91.5233 68.061C97.7569 68.061 101.384 71.4491 101.855 76.7169L96.3024 76.9188C96.2507 76.3643 96.0891 75.8256 95.827 75.3338C95.565 74.842 95.2076 74.4069 94.7757 74.0537C94.3437 73.7005 93.8457 73.4364 93.3106 73.2764C92.7755 73.1164 92.214 73.0637 91.6583 73.1216C88.3268 73.1216 86.4756 75.4362 86.4756 79.0263C86.4756 82.7164 88.4271 85.1656 92.0963 85.1656C93.0014 85.2178 93.9031 85.0159 94.6989 84.5829C95.4947 84.15 96.1527 83.5034 96.5983 82.7164H91.9232V78.624H102.02V89.5945H97.0382V87.2454C96.3466 88.205 95.4125 88.9651 94.3307 89.4484C93.2489 89.9316 92.0579 90.1208 90.879 89.9967C85.028 90.0001 80.5849 85.5729 80.5849 79.0314Z" fill="#1A1A1A"/>
<path d="M115.819 68.4631H121.979L113.84 81.5806V89.5979H108.287V81.5806L100.148 68.4631H106.509L111.288 76.0782L115.819 68.4631Z" fill="#1A1A1A"/>
<path d="M58.4568 84.9014H47.6863V81.2441H55.9979V76.615H47.6863V73.163H58.4568V68.4666H42.0674V89.5978H58.4568V84.9014Z" fill="#1A1A1A"/>
<path d="M18.6599 84.9013H7.88947V81.244H16.2011V76.6149H7.88947V73.1629H18.6599V68.4665H2.27051V89.5977H18.6599V84.9013Z" fill="#1A1A1A"/>
</g>
<defs>
<clipPath id="clip0">
<rect width="122" height="90" fill="white"/>
</clipPath>
</defs>
</svg>
