<svg width="200" height="200" viewBox="0 0 200 200" fill="none" xmlns="http://www.w3.org/2000/svg">
<g clip-path="url(#clip0)">
<path d="M134.865 94.0027C133.471 94.0027 131.794 94.0027 130.681 94.0027V83H126.996V117.398C128.473 118.313 131.694 119.016 134.699 119.016C141.506 119.016 147.068 114.929 147.068 106.853C147.068 99.1035 141.622 94.0027 134.865 94.0027ZM134.566 115.828C133.321 115.828 131.428 115.583 130.681 115.174V97.1907C131.794 97.1907 132.989 97.1907 134.616 97.1907C139.315 97.1907 143.266 100.624 143.266 106.738C143.266 112.281 140.012 115.828 134.566 115.828Z" fill="#0059B2"/>
<path d="M181.999 106.281C181.999 98.7604 178.795 94.0029 172.785 94.0029C167.024 94.0029 163.172 99.0057 163.172 106.281C163.172 113.245 166.874 119 174.329 119C176.985 119 179.857 118.248 181.916 116.875L180.721 114.243C179.127 115.158 177.118 115.943 174.926 115.943C169.879 115.943 167.123 112.428 167.024 107.344H181.983V106.281H181.999ZM167.09 104.809C167.14 100.804 169.398 97.5343 173.001 97.5343C176.753 97.5343 178.513 100.804 178.562 104.809H167.09Z" fill="#0059B2"/>
<path d="M120.338 102.144C120.338 96.4387 117.134 94.2643 112.219 94.2643H96.6794V83H92.9936V93.8065C91.8813 93.8065 90.6693 93.8065 89.258 93.8065C82.5008 93.8065 77.188 98.9074 77.188 106.64C77.188 114.717 82.5506 118.804 89.3577 118.804C92.3627 118.804 95.2018 118.101 96.6794 117.185V97.0109L111.456 97.109C114.411 97.109 116.652 98.7275 116.652 102.357V103.877L112.286 104.025C109.878 104.123 108.052 104.384 106.442 105.185C104.034 106.297 102.474 108.471 102.474 111.643C102.474 116.237 105.695 119.016 110.011 119.016C112.966 119.016 115.291 117.856 117.134 116.09L117.848 119H121.102C120.803 117.921 120.338 115.076 120.338 110.384V102.144ZM93.0102 114.978C91.8978 115.387 90.8353 115.632 89.5735 115.632C84.1113 115.632 81.0066 112.101 81.0066 106.542C81.0066 100.428 84.7588 96.9946 89.4573 96.9946C91.0843 96.9946 91.8978 96.9946 93.0102 96.9946V114.978ZM116.652 112.738C115.54 113.899 113.481 115.861 110.526 115.861C107.82 115.861 106.193 114.046 106.193 111.414C106.193 109.845 106.923 108.488 108.285 107.736C109.331 107.18 110.559 106.869 112.618 106.82L116.652 106.673V112.738Z" fill="#0059B2"/>
<path d="M23.7777 115.698C22.5325 115.698 21.6858 115.142 21.6858 113.18V83H18V114.341C18 117.218 19.6935 118.984 22.6985 118.984C23.7943 118.984 25.1723 118.738 26.1353 118.281L25.2719 115.338C24.9233 115.501 24.1761 115.698 23.7777 115.698Z" fill="#0059B2"/>
<path d="M39.1988 93.8066C33.4377 93.8066 29.5859 98.8094 29.5859 106.085C29.5859 113.049 33.2883 118.804 40.7429 118.804C43.3993 118.804 46.2715 118.052 48.3302 116.679L47.1348 114.046C45.541 114.962 43.5321 115.845 41.3405 115.845C36.2934 115.845 33.5373 112.428 33.4377 107.343H48.4298V106.085C48.4298 98.5641 45.2089 93.8066 39.1988 93.8066ZM33.4875 104.809C33.5373 100.804 35.7953 97.5342 39.398 97.5342C43.1502 97.5342 44.9101 100.804 44.9599 104.809H33.4875Z" fill="#0059B2"/>
<path d="M65.6843 94.1665C62.6294 94.1665 60.1225 95.9158 57.5159 98.1393L57.2004 95.3436H53.5977V118.968H57.3V101.082C59.5082 99.1202 62.1646 97.5017 64.821 97.5017C68.1747 97.5017 69.2207 100.314 69.2207 103.894L69.3369 118.984H72.4416V102.553C72.4249 96.5371 69.3867 94.1665 65.6843 94.1665Z" fill="#0059B2"/>
<path d="M158.525 115.518C157.28 115.518 156.532 114.962 156.532 113V83H153.179V114.373C153.179 117.251 154.623 118.918 157.628 118.918C158.724 118.918 159.986 118.608 160.932 118.166L160.069 115.207C159.72 115.338 158.923 115.518 158.525 115.518Z" fill="#0059B2"/>
</g>
<defs>
<clipPath id="clip0">
<rect width="164" height="36" fill="white" transform="translate(18 83)"/>
</clipPath>
</defs>
</svg>
