<svg width="114" height="114" viewBox="0 0 114 114" fill="none" xmlns="http://www.w3.org/2000/svg">
<path d="M114 57.1787C113.964 68.4551 110.585 79.4678 104.289 88.8232C97.9936 98.1786 89.0644 105.456 78.6315 109.736C68.1985 114.015 56.7307 115.104 45.6788 112.864C34.6269 110.625 24.4877 105.157 16.544 97.1536C8.60024 89.15 3.20897 78.97 1.05225 67.9017C-1.10447 56.8333 0.0702978 45.3739 4.42791 34.9733C8.78553 24.5728 16.1302 15.6985 25.5326 9.47315C34.935 3.24783 45.9727 -0.0487349 57.2491 0.000544528C72.3541 0.0665553 86.8153 6.12549 97.456 16.8464C108.097 27.5674 114.047 42.0736 114 57.1787ZM56.9997 56.8937C68.6135 56.8937 80.2628 56.8937 91.8766 56.8937C93.8716 56.8937 94.6553 56.5018 94.5128 54.293C94.3038 49.7671 93.1766 45.331 91.1997 41.2543C88.1091 34.3072 82.9425 28.4879 76.4101 24.5966C69.8777 20.7052 62.3004 18.9328 54.7197 19.523C45.7222 20.1261 37.2367 23.926 30.7952 30.2368C24.3537 36.5476 20.3807 44.9535 19.5935 53.9368C19.5935 56.1455 20.0922 56.9649 22.4435 56.9649C33.8435 57.0005 45.4216 57.0005 56.9641 57.0005L56.9997 56.8937Z" fill="#333399"/>
</svg>
