<svg width="200" height="200" viewBox="0 0 200 200" fill="none" xmlns="http://www.w3.org/2000/svg">
<path d="M157 105.179C156.964 116.455 153.585 127.468 147.289 136.823C140.994 146.179 132.064 153.456 121.631 157.736C111.199 162.015 99.7307 163.104 88.6788 160.864C77.6269 158.625 67.4877 153.157 59.544 145.154C51.6002 137.15 46.209 126.97 44.0522 115.902C41.8955 104.833 43.0703 93.3739 47.4279 82.9733C51.7855 72.5728 59.1302 63.6985 68.5326 57.4732C77.935 51.2478 88.9727 47.9513 100.249 48.0005C115.354 48.0666 129.815 54.1255 140.456 64.8464C151.097 75.5674 157.047 90.0736 157 105.179ZM99.9997 104.894C111.613 104.894 123.263 104.894 134.877 104.894C136.872 104.894 137.655 104.502 137.513 102.293C137.304 97.7671 136.177 93.331 134.2 89.2543C131.109 82.3072 125.942 76.4879 119.41 72.5966C112.878 68.7052 105.3 66.9328 97.7197 67.523C88.7222 68.1261 80.2367 71.926 73.7952 78.2368C67.3537 84.5476 63.3807 92.9535 62.5935 101.937C62.5935 104.146 63.0922 104.965 65.4435 104.965C76.8435 105.001 88.4216 105.001 99.9641 105.001L99.9997 104.894Z" fill="#333399"/>
</svg>
