<svg width="200" height="200" viewBox="0 0 200 200" fill="none" xmlns="http://www.w3.org/2000/svg">
<path d="M76.9124 99.8942C75.0771 100.452 69.0383 116.114 65.8672 124.78C71.5606 128.713 77.5014 132.244 82.982 134.645C93.9833 139.457 97.4185 137.501 104.247 134.414C109.144 132.205 116.822 127.035 123.548 122.126C115.378 116.763 105.097 110.268 99.213 107.49C88.1833 102.273 79.5724 99.0863 76.9124 99.8942Z" fill="#0D6DB5"/>
<path d="M81.4414 91.6888C81.4414 91.6888 91.4791 85.7873 107.577 80.0382C116.205 76.9581 124.787 75.4379 130.897 74.6938C127.453 73.7201 124.231 72.82 121.802 72.1478C114.114 70.0293 103.042 67.4164 93.77 65.9849C93.3335 68.2037 92.2645 71.8327 89.568 77.0449C85.9153 84.0823 81.4414 91.6888 81.4414 91.6888Z" fill="#0D6DB5"/>
<path d="M86.3646 65.1067C77.937 64.5279 76.6463 66.439 75.0117 67.5804C70.6833 69.9498 52.75 80.6667 44.0606 88.2374C35.8262 95.4106 37.199 99.8938 41.0357 104.404C44.1423 108.057 49.5871 112.388 58.0595 119.017C58.4461 119.322 58.8355 119.621 59.2311 119.929C62.6337 112.376 70.0496 95.998 73.6949 88.3199C77.9654 79.3103 83.7681 69.4324 86.3646 65.1067Z" fill="#0D6DB5"/>
<path d="M160.038 83.9693C157.096 82.4328 154.472 81.6026 152.191 80.8585C151.036 80.485 148.012 79.5923 144.217 78.4961C137.493 79.3791 126.348 81.06 115.547 83.6464C104.361 86.3282 85.5742 95.4522 85.5742 95.4522C85.5742 95.4522 109.324 103.093 131.58 116.029C132.325 115.439 133.012 114.887 133.637 114.375C140.538 108.723 158.07 94.1658 161.811 87.8021C162.732 86.2263 161.952 84.9679 160.038 83.9693Z" fill="#0D6DB5"/>
<path d="M115.556 83.6435C126.347 81.059 137.496 79.3789 144.216 78.4932C140.23 77.3386 135.378 75.9573 130.899 74.6938C124.794 75.438 116.209 76.9582 107.582 80.0383C91.4783 85.7873 81.4405 91.6888 81.4405 91.6888C81.4405 91.6888 85.9171 84.08 89.5675 77.0484C92.2683 71.8354 93.3326 68.2072 93.7714 65.9872C92.6643 65.8145 91.5763 65.6616 90.5267 65.527C88.9762 65.329 87.5968 65.1944 86.3699 65.1073C83.7694 69.433 77.9664 79.3105 73.701 88.3251C70.0603 96.0005 62.6394 112.38 59.2349 119.932C61.3798 121.58 63.6088 123.213 65.877 124.78C69.0482 116.114 75.0847 100.453 76.9223 99.8944C79.583 99.0868 88.1912 102.273 99.2263 107.486C105.11 110.264 115.394 116.761 123.558 122.123C126.536 119.947 129.316 117.822 131.59 116.026C109.333 103.09 85.5884 95.4481 85.5884 95.4481C85.5884 95.4481 104.36 86.3229 115.556 83.6435Z" fill="white"/>
</svg>
