<svg width="120" height="120" viewBox="0 0 120 120" fill="none" xmlns="http://www.w3.org/2000/svg">
<path d="M118.457 58.518C114.562 51.9934 110.258 45.724 105.566 39.7457L105.449 39.5976L105.408 39.5517C105.173 39.2556 104.561 38.5 104.331 38.2039C102.192 35.2734 99.6799 11.8093 99.3889 10.0786C99.0417 8.04152 98.4546 5.92281 95.5037 5.60628C93.1093 5.35612 89.5611 4.9579 85.6402 4.75879C83.8278 4.6669 82.8884 5.64202 82.4136 6.54056C82.0869 7.1532 81.9439 7.85263 81.9286 8.54695C81.8775 11.554 81.9388 13.0243 81.9388 13.397C81.9388 13.4379 81.9337 13.4787 81.9286 13.5196C81.8877 13.7289 81.7754 13.9025 81.6223 14.0352C81.2853 14.316 80.7901 14.2854 80.4429 14.0199C78.5846 12.6057 68.8895 5.25401 63.5392 1.93043C63.289 1.78238 63.0286 1.64964 62.7631 1.53222C60.8078 0.654098 58.5257 0.623466 56.6674 1.69559C56.5397 1.77217 56.407 1.84875 56.2845 1.93554C54.518 3.0434 24.3199 20.1922 1.45822 58.3444C1.45822 58.3444 0.0389373 60.3355 1.10085 62.199C2.13213 64.3432 12.1131 64.9507 13.711 65.1345C15.5132 65.3234 15.503 66.7989 15.503 66.7989C15.6919 82.457 15.9625 90.0588 18.5152 116.612C18.5152 116.612 18.9236 119.384 21.6652 119.517C22.773 119.573 26.8828 119.333 37.844 119.088C38.2626 119.134 38.6353 118.827 38.6813 118.414C38.6864 118.353 38.6864 118.286 38.6761 118.225C37.6296 107.386 37.2926 98.0078 37.2671 97.4667C37.2415 97.0787 36.8893 96.4967 36.5268 96.3486C32.4834 94.0359 30.0788 89.9873 30.043 85.3313C29.7367 63.8735 31.0488 47.4037 31.0488 47.4037C31.0488 47.4037 31.1764 45.1165 33.1828 45.3003C35.1892 45.4841 35.0565 47.7304 35.0565 47.7304C34.3366 56.9711 34.0558 73.6298 34.0558 73.6298C34.0558 73.6298 34.0558 76.7951 37.0884 76.79C40.121 76.7849 40.121 73.6298 40.121 73.6298C40.0291 60.5908 41.1267 47.4905 41.1267 47.4905C41.1267 47.4905 41.1267 45.2697 43.2659 45.2697C44.4299 45.2697 44.874 46.0712 45.0476 46.7145C45.1395 47.0616 45.1599 47.419 45.1293 47.7713C44.241 59.0592 44.144 73.6094 44.144 73.6094C44.144 73.6094 44.144 76.7747 47.1765 76.7696C50.2091 76.7645 50.1989 73.349 50.1989 73.349C50.1478 62.541 51.2098 47.4956 51.2098 47.4956C51.3017 46.3265 51.8888 45.3054 53.3183 45.2901C55.1051 45.3462 55.2379 47.0565 55.2072 47.4956C54.2576 59.2277 54.2321 77.2087 54.273 84.9126C54.4159 89.5483 52.0623 93.9031 48.1108 96.3282C47.7483 96.5732 47.5492 97.0021 47.6003 97.436C47.8504 104.568 48.4478 112.481 48.9634 118.148C48.9838 118.531 49.2799 118.838 49.6628 118.873C52.6903 118.873 58.5053 118.838 62.1556 118.838C68.0114 118.838 70.3548 118.873 74.6535 118.935C75.1385 118.935 75.3682 118.577 75.4091 118.087C76.5169 107.82 76.9049 100.387 76.9611 99.7385C77.0275 99.0085 76.1238 98.8655 76.1238 98.8655C74.7811 98.6817 71.6362 98.309 68.961 97.87C66.2858 97.4309 66.1888 94.3881 66.1888 94.3881C63.9323 62.3623 80.8309 42.4005 80.8309 42.4005C80.8309 42.4005 82.5157 40.1847 84.8437 41.0527C86.9012 41.8185 87.4475 47.756 87.473 48.1082C89.7347 74.6254 87.182 105.543 85.7065 118.164C85.6504 118.679 85.8903 119.088 86.3549 119.19C86.9369 119.287 97.0863 119.624 98.0104 119.522C99.6594 119.353 100.982 118.097 101.237 116.459C104.831 91.6517 104.285 66.7683 104.285 66.7683C104.361 65.8799 105.061 65.1805 105.949 65.1039L115.675 64.0624C116.951 63.8735 118.034 63.3681 118.6 62.2704C119.177 61.0707 119.136 59.6616 118.457 58.518Z" fill="#FF8000"/>
</svg>
