<svg width="200" height="200" viewBox="0 0 200 200" fill="none" xmlns="http://www.w3.org/2000/svg">
<path d="M158.457 103.518C154.562 96.9934 150.258 90.724 145.566 84.7457L145.449 84.5976L145.408 84.5517C145.173 84.2556 144.561 83.5 144.331 83.2039C142.192 80.2734 139.68 56.8093 139.389 55.0786C139.042 53.0415 138.455 50.9228 135.504 50.6063C133.109 50.3561 129.561 49.9579 125.64 49.7588C123.828 49.6669 122.888 50.642 122.414 51.5406C122.087 52.1532 121.944 52.8526 121.929 53.547C121.878 56.554 121.939 58.0243 121.939 58.397C121.939 58.4379 121.934 58.4787 121.929 58.5196C121.888 58.7289 121.775 58.9025 121.622 59.0352C121.285 59.316 120.79 59.2854 120.443 59.0199C118.585 57.6057 108.89 50.254 103.539 46.9304C103.289 46.7824 103.029 46.6496 102.763 46.5322C100.808 45.6541 98.5257 45.6235 96.6674 46.6956C96.5397 46.7722 96.407 46.8487 96.2845 46.9355C94.518 48.0434 64.3199 65.1922 41.4582 103.344C41.4582 103.344 40.0389 105.336 41.1008 107.199C42.1321 109.343 52.1131 109.951 53.711 110.135C55.5132 110.323 55.503 111.799 55.503 111.799C55.6919 127.457 55.9625 135.059 58.5152 161.612C58.5152 161.612 58.9236 164.384 61.6652 164.517C62.773 164.573 66.8828 164.333 77.844 164.088C78.2626 164.134 78.6353 163.827 78.6813 163.414C78.6864 163.353 78.6864 163.286 78.6761 163.225C77.6296 152.386 77.2926 143.008 77.2671 142.467C77.2415 142.079 76.8893 141.497 76.5268 141.349C72.4834 139.036 70.0788 134.987 70.043 130.331C69.7367 108.874 71.0488 92.4037 71.0488 92.4037C71.0488 92.4037 71.1764 90.1165 73.1828 90.3003C75.1892 90.4841 75.0565 92.7304 75.0565 92.7304C74.3366 101.971 74.0558 118.63 74.0558 118.63C74.0558 118.63 74.0558 121.795 77.0884 121.79C80.121 121.785 80.121 118.63 80.121 118.63C80.0291 105.591 81.1267 92.4905 81.1267 92.4905C81.1267 92.4905 81.1267 90.2697 83.2659 90.2697C84.4299 90.2697 84.874 91.0712 85.0476 91.7145C85.1395 92.0616 85.1599 92.419 85.1293 92.7713C84.241 104.059 84.144 118.609 84.144 118.609C84.144 118.609 84.144 121.775 87.1765 121.77C90.2091 121.765 90.1989 118.349 90.1989 118.349C90.1478 107.541 91.2098 92.4956 91.2098 92.4956C91.3017 91.3265 91.8888 90.3054 93.3183 90.2901C95.1051 90.3462 95.2379 92.0565 95.2072 92.4956C94.2576 104.228 94.2321 122.209 94.273 129.913C94.4159 134.548 92.0623 138.903 88.1108 141.328C87.7483 141.573 87.5492 142.002 87.6003 142.436C87.8504 149.568 88.4478 157.481 88.9634 163.148C88.9838 163.531 89.2799 163.838 89.6628 163.873C92.6903 163.873 98.5053 163.838 102.156 163.838C108.011 163.838 110.355 163.873 114.653 163.935C115.138 163.935 115.368 163.577 115.409 163.087C116.517 152.82 116.905 145.387 116.961 144.739C117.027 144.008 116.124 143.866 116.124 143.866C114.781 143.682 111.636 143.309 108.961 142.87C106.286 142.431 106.189 139.388 106.189 139.388C103.932 107.362 120.831 87.4005 120.831 87.4005C120.831 87.4005 122.516 85.1847 124.844 86.0527C126.901 86.8185 127.447 92.756 127.473 93.1082C129.735 119.625 127.182 150.543 125.707 163.164C125.65 163.679 125.89 164.088 126.355 164.19C126.937 164.287 137.086 164.624 138.01 164.522C139.659 164.353 140.982 163.097 141.237 161.459C144.831 136.652 144.285 111.768 144.285 111.768C144.361 110.88 145.061 110.18 145.949 110.104L155.675 109.062C156.951 108.874 158.034 108.368 158.6 107.27C159.177 106.071 159.136 104.662 158.457 103.518Z" fill="#FF8000"/>
</svg>
